# xmcd CD database file
#
# Track frame offsets:
#	150
#	16192
#	35910
#	50758
#	67181
#	78363
#	98281
#	113833
#	130427
#	145010
#	155359
#	169699
#	179526
#
# Disc length: 2543 seconds
#
# Revision: 0
# Processed by: cddbd v1.5.2PL0 Copyright (c) Steve Scherf et al.
# Submitted via: CDex 1.60beta1-cs1
#
DISCID=ad09ed0d
DTITLE=Hímen Complacente - Apocalípse
DYEAR=1900
DGENRE=Rhythmic Soul
TTITLE0=O maluco foi, a beleza ficou.
TTITLE1=Congresso nacional
TTITLE2=Menino de rua
TTITLE3=Cidadão soteropolitano
TTITLE4=País sem futuro
TTITLE5=Reaprendendo a viver
TTITLE6=Executivo por sonho
TTITLE7=Balada fria
TTITLE8=Marculino foi a Boston
TTITLE9=Não somos anjos
TTITLE10=Em cima dos trilhos
TTITLE11=Multinacionais
TTITLE12=Apocalípse
EXTD=
EXTT0=
EXTT1=
EXTT2=
EXTT3=
EXTT4=
EXTT5=
EXTT6=
EXTT7=
EXTT8=
EXTT9=
EXTT10=
EXTT11=
EXTT12=
PLAYORDER=
